<svg width="190" height="94" viewBox="0 0 190 94" fill="none" xmlns="http://www.w3.org/2000/svg">
<path d="M158.584 54.9479V25.04H168.978L176.131 49.6698H176.567V25.04H182.585V54.9479H172.453L165.038 30.3185H164.602V54.9479H158.584Z" fill="#111212"/>
<path d="M141.205 24.978C134.464 24.978 128.759 29.5204 126.931 35.7283H132.894C134.439 32.6788 137.583 30.5853 141.205 30.5853C146.349 30.5853 150.534 34.8066 150.534 39.9945C150.534 45.1822 146.349 49.4032 141.205 49.4032C137.584 49.4032 134.439 47.3092 132.894 44.2607H126.931C128.759 50.4679 134.464 55.0103 141.205 55.0103C149.415 55.0103 156.094 48.2745 156.094 39.9945C156.094 31.7142 149.415 24.978 141.205 24.978Z" fill="#111212"/>
<path d="M17.4919 35.7281H23.5104V30.4058H31.3602V25.04H9.55469V30.4058H17.4919V35.7281Z" fill="#111212"/>
<path d="M17.4922 44.2607V54.9482H23.5107V44.2607H17.4922Z" fill="#111212"/>
<path d="M67.0667 50.1104C64.6681 50.1104 63.0688 49.4438 62.2698 48.1093C61.7596 47.259 61.4137 45.9748 61.2287 44.2607H55.0361C55.1146 45.2098 55.2204 46.0782 55.3573 46.8551C55.6768 48.6737 56.2579 50.2572 57.1018 51.6061C57.9442 52.9543 59.1079 53.9373 60.5909 54.5527C62.0733 55.168 64.05 55.476 66.5218 55.476C68.9925 55.476 71.769 55.1384 74.8513 54.4648L74.7208 49.4947C72.0168 49.9054 69.4654 50.1104 67.0667 50.1104Z" fill="#111212"/>
<path d="M61.2886 35.7281C61.3825 34.8556 61.5051 34.1354 61.6593 33.5728C62.0514 32.1363 62.6544 31.1611 63.4689 30.6482C64.2827 30.1353 65.6417 29.8779 67.5464 29.8779C69.4503 29.8779 71.8422 30.0982 74.7205 30.5378L74.8951 25.7C71.6095 24.908 68.7165 24.5127 66.2164 24.5127C61.8837 24.5127 58.9118 25.6489 57.2979 27.9213C56.1174 29.5839 55.3703 32.1894 55.0537 35.7281H61.2886Z" fill="#111212"/>
<path d="M84.6581 35.7281V32.1031H84.6642V25.04H78.6455V35.7281H84.6581Z" fill="#111212"/>
<path d="M101.717 35.7281V25.04H95.6982V35.7281H101.717Z" fill="#111212"/>
<path d="M95.6982 44.2607V44.2615H84.6581V44.2607H78.6455V54.9482H84.6642V49.5396H95.6982V54.9482H101.717V44.2607H95.6982Z" fill="#111212"/>
<path d="M118.557 69.4155C117.577 69.4155 116.875 69.1407 116.449 68.5908C116.087 68.1226 115.904 67.4527 115.899 66.5807C115.899 66.4263 115.92 66.1136 115.933 65.9418H117.771C117.753 66.1345 117.758 66.1298 117.758 66.2972C117.758 67.2896 118.054 67.7853 118.647 67.7853C118.906 67.7853 119.103 67.7018 119.237 67.5344C119.371 67.3667 119.453 67.1497 119.483 66.8833C119.492 66.8019 119.496 66.7246 119.496 66.6519C119.5 66.4498 119.473 66.2585 119.413 66.0781C119.337 65.8377 119.233 65.6349 119.103 65.4689C118.973 65.3041 118.787 65.1056 118.545 64.8731L117.471 63.8362C117.079 63.4581 116.794 63.0694 116.615 62.6703C116.487 62.3774 116.421 62.0282 116.417 61.6196C116.417 61.4736 116.425 61.3214 116.443 61.1623C116.532 60.3036 116.853 59.6391 117.407 59.1684C117.961 58.698 118.676 58.4602 119.554 58.4565H119.599C119.99 58.4565 120.329 58.5126 120.614 58.6239C120.912 58.74 121.145 58.8889 121.314 59.0719C121.482 59.2545 121.614 59.4801 121.71 59.748C121.806 60.0169 121.866 60.2798 121.892 60.5376C121.909 60.7053 121.915 60.8857 121.911 61.0784C121.911 61.1815 121.896 61.4139 121.892 61.5307H120.061C120.073 61.3112 120.071 61.2888 120.071 61.1044C120.071 61.0188 120.069 60.9324 120.065 60.847C120.056 60.5976 119.992 60.3958 119.873 60.2411C119.766 60.1037 119.609 60.0347 119.4 60.0347H119.343C119.091 60.048 118.889 60.1413 118.736 60.3152C118.583 60.4887 118.493 60.7031 118.468 60.9562C118.459 61.0206 118.455 61.0853 118.455 61.1496C118.455 61.3257 118.482 61.4909 118.538 61.6457C118.61 61.8561 118.693 62.0202 118.787 62.1384C118.881 62.2563 119.021 62.4078 119.209 62.5929L120.269 63.6175C120.486 63.8319 120.672 64.0401 120.825 64.2422C120.978 64.444 121.119 64.6736 121.25 64.9313C121.38 65.1887 121.47 65.4722 121.521 65.7817C121.551 65.9577 121.566 66.1382 121.566 66.3233C121.566 66.465 121.557 66.611 121.54 66.7607C121.459 67.5384 121.144 68.1751 120.595 68.6711C120.045 69.1675 119.366 69.4155 118.557 69.4155Z" fill="#5F6263"/>
<path d="M122.396 69.2737L123.507 58.592H128.087L127.935 60.0733H125.468L125.168 62.9468H127.091L126.938 64.4417H125.015L124.664 67.8113H127.162L127.008 69.2737H122.396Z" fill="#5F6263"/>
<path d="M131.008 69.4155C130.543 69.4155 130.139 69.3595 129.794 69.2477C129.449 69.1364 129.172 68.9762 128.963 68.768C128.755 68.5597 128.591 68.3074 128.471 68.0109C128.352 67.7148 128.284 67.3837 128.266 67.0189C128.263 66.9075 128.261 66.7911 128.261 66.6711C128.261 66.4046 128.273 66.123 128.299 65.8272L128.689 62.0643C128.748 61.4848 128.85 60.9812 128.996 60.5535C129.14 60.1258 129.346 59.7512 129.612 59.4294C129.878 59.1073 130.223 58.8644 130.646 58.7009C131.071 58.5386 131.572 58.4565 132.151 58.4565C132.701 58.4565 133.162 58.5281 133.534 58.6724C133.907 58.8163 134.191 59.0278 134.387 59.3069C134.583 59.586 134.711 59.906 134.771 60.2668C134.805 60.4649 134.819 60.6836 134.815 60.9244C134.815 61.1175 134.805 61.3232 134.783 61.5426L134.681 62.4707H132.63L132.733 61.4848C132.745 61.3514 132.754 61.2646 132.758 61.2234C132.763 61.1829 132.767 61.1044 132.774 60.9888C132.781 60.872 132.782 60.7932 132.777 60.7498C132.773 60.7075 132.766 60.6391 132.755 60.5473C132.744 60.4548 132.726 60.3901 132.701 60.3539C132.675 60.3174 132.643 60.27 132.605 60.2122C132.567 60.154 132.52 60.1135 132.464 60.0896C132.409 60.0658 132.342 60.0448 132.263 60.0256C132.184 60.0057 132.096 59.9963 131.998 59.9963C131.853 59.9963 131.725 60.0144 131.614 60.0509C131.504 60.0871 131.41 60.1446 131.333 60.2219C131.256 60.2989 131.193 60.3796 131.142 60.4634C131.091 60.5473 131.048 60.6576 131.014 60.795C130.98 60.9324 130.953 61.0571 130.934 61.1692C130.915 61.2802 130.897 61.4201 130.88 61.5878L130.394 66.3099C130.373 66.499 130.362 66.6711 130.362 66.8254C130.362 67.1089 130.398 67.3327 130.471 67.4961C130.582 67.7448 130.818 67.8692 131.18 67.8692C131.32 67.8692 131.444 67.8522 131.551 67.8179C131.657 67.7831 131.747 67.7253 131.819 67.6432C131.891 67.5619 131.95 67.4824 131.994 67.4053C132.039 67.3283 132.078 67.2184 132.11 67.0767C132.142 66.935 132.165 66.8157 132.18 66.7188C132.195 66.6226 132.211 66.486 132.228 66.3099L132.336 65.2856H134.387L134.298 66.1815C134.247 66.675 134.154 67.1089 134.02 67.4823C133.885 67.8565 133.694 68.1935 133.445 68.4943C133.196 68.7951 132.867 69.0236 132.458 69.1801C132.049 69.337 131.566 69.4155 131.008 69.4155Z" fill="#5F6263"/>
<path d="M138.233 69.4154C137.641 69.4154 137.151 69.3341 136.764 69.1707C136.375 69.0072 136.09 68.7708 135.904 68.4613C135.719 68.1529 135.598 67.7726 135.543 67.3214C135.517 67.1193 135.505 66.9049 135.505 66.6768C135.505 66.3977 135.524 66.1019 135.562 65.7885L136.31 58.592H138.38L137.607 66.052C137.59 66.2241 137.577 66.3742 137.568 66.5032C137.564 66.5679 137.564 66.6341 137.568 66.7028C137.568 66.7675 137.568 66.8384 137.568 66.9154C137.577 67.0618 137.598 67.1865 137.632 67.2896C137.667 67.3926 137.713 67.4881 137.773 67.5766C137.832 67.6641 137.915 67.7296 138.022 67.7726C138.128 67.8156 138.254 67.8373 138.399 67.8373C138.569 67.8373 138.719 67.8026 138.849 67.7339C138.979 67.6652 139.083 67.5792 139.162 67.4765C139.241 67.3734 139.308 67.2375 139.363 67.0705C139.419 66.9024 139.459 66.7437 139.485 66.5936C139.511 66.4432 139.534 66.2628 139.555 66.052L140.328 58.592H142.404L141.65 65.7885C141.599 66.265 141.527 66.6847 141.433 67.0477C141.339 67.4107 141.208 67.7455 141.037 68.0528C140.867 68.3601 140.657 68.6099 140.408 68.8033C140.159 68.9964 139.853 69.1468 139.491 69.2545C139.129 69.3619 138.709 69.4154 138.233 69.4154Z" fill="#5F6263"/>
<path d="M145.541 63.1402H146.065C146.593 63.1402 146.981 63.018 147.228 62.7732C147.475 62.5285 147.628 62.1286 147.688 61.5744C147.701 61.4413 147.707 61.317 147.707 61.2009C147.711 60.8527 147.65 60.5885 147.522 60.408C147.351 60.1676 147.015 60.0458 146.512 60.0414H145.867L145.541 63.1402ZM142.788 69.2737L143.9 58.592H146.538C146.985 58.592 147.377 58.6188 147.713 58.6723C148.05 58.7258 148.357 58.8194 148.633 58.9525C148.91 59.0855 149.132 59.2576 149.298 59.4677C149.468 59.6828 149.587 59.9532 149.656 60.2797C149.698 60.4771 149.717 60.694 149.713 60.9305C149.713 61.0895 149.704 61.2544 149.687 61.4265C149.619 62.0964 149.455 62.6485 149.196 63.0823C148.936 63.5162 148.557 63.8405 148.058 64.0549L149.08 69.2737H146.979L146.174 64.4417H145.407L144.902 69.2737H142.788Z" fill="#5F6263"/>
<path d="M150.274 69.2737L151.386 58.592H153.481L152.37 69.2737H150.274Z" fill="#5F6263"/>
<path d="M154.983 69.2737L155.935 60.1636H154.223L154.389 58.592H159.883L159.723 60.1636H158.05L157.098 69.2737H154.983Z" fill="#5F6263"/>
<path d="M161.299 69.2737L161.733 65.0733L160.314 58.592H162.295L163.074 62.4511L164.57 58.592H166.512L163.758 65.0733L163.324 69.2737H161.299Z" fill="#5F6263"/>
<path d="M122.657 35.7281L128.1 25.04H121.427L116.539 35.7281H122.657Z" fill="#111212"/>
<path d="M113.011 44.2607V54.9482H119.029V44.2607H113.011Z" fill="#111212"/>
<path d="M115.414 35.7281L110.525 25.04H103.853L109.347 35.7281H115.414Z" fill="#111212"/>
<path d="M41.4955 30.0544H42.3401L43.5417 35.7281H49.3905L47.0066 25.04H41.3134H40.0648H36.829L34.4443 35.7281H40.2935L41.4955 30.0544Z" fill="#111212"/>
<path d="M51.2946 44.2607H32.5408L30.1562 54.9482H36.1749L37.3522 49.5388H46.483L47.6606 54.9482H53.6786L51.2946 44.2607Z" fill="#111212"/>
<path d="M136.585 37.9614H7.52832V41.9383H136.585V37.9614Z" fill="url(#paint0_linear_54_22480)"/>
<path d="M136.585 37.9614H7.52832V41.9383H136.585V37.9614Z" fill="url(#paint1_linear_54_22480)"/>
<path d="M141.424 46.6384C145.087 46.6384 148.056 43.6439 148.056 39.9499C148.056 36.256 145.087 33.2615 141.424 33.2615C137.761 33.2615 134.792 36.256 134.792 39.9499C134.792 43.6439 137.761 46.6384 141.424 46.6384Z" fill="#7B61FF"/>
<path d="M143.217 38.6846C143.91 38.6846 144.471 38.118 144.471 37.4192C144.471 36.7203 143.91 36.1538 143.217 36.1538C142.524 36.1538 141.962 36.7203 141.962 37.4192C141.962 38.118 142.524 38.6846 143.217 38.6846Z" fill="#F4F5F7"/>
<defs>
<linearGradient id="paint0_linear_54_22480" x1="7.52832" y1="41.9384" x2="134.076" y2="41.9384" gradientUnits="userSpaceOnUse">
<stop stop-color="#7B61FF" stop-opacity="0"/>
<stop offset="0.0208333" stop-color="#7B61FF" stop-opacity="0.0396452"/>
<stop offset="0.41328" stop-color="#7B61FF" stop-opacity="0.786458"/>
<stop offset="1" stop-color="#7B61FF"/>
</linearGradient>
<linearGradient id="paint1_linear_54_22480" x1="7.52832" y1="41.9384" x2="134.076" y2="41.9384" gradientUnits="userSpaceOnUse">
<stop stop-color="#7B61FF" stop-opacity="0"/>
<stop offset="0.0208333" stop-color="#7B61FF" stop-opacity="0.0396452"/>
<stop offset="0.41328" stop-color="#7B61FF" stop-opacity="0.786458"/>
<stop offset="1" stop-color="#7B61FF"/>
</linearGradient>
</defs>
</svg>
